# xmcd
#
# Track frame offsets: 
#        150
#        15875
#        28241
#        42793
#        60068
#        74735
#        82681
#        102097
#        115711
#        131798
#        145552
#        161087
#        177140
#        194889
#        207358
#        222755
#        235377
#        254969
#        268136
#        280074
#        292856
#        308561
#        320967
#
# Disc length: 4510 seconds
#
# Revision: 0
# Processed by: cddbd v1.5.2PL0 Copyright (c) Steve Scherf et al.
# Submitted via: ExactAudioCopyFreeDBPlugin 1.0
#
DISCID=53119c17
DTITLE=Various Artist - Porta Řevnice 2011
DYEAR=2011
DGENRE=Country
TTITLE0=Irish Dew - Tanec stromu
TTITLE1=Jaroslav Samson Lenk - Průšvih den
TTITLE2=Věra Martinová - Mý blues
TTITLE3=Tomáš Klus - Chybíš mi
TTITLE4=Vladimír Mišík - Páteční cajun
TTITLE5=Jan Řepka - Zápalka
TTITLE6=Wabi Danek - Nevadí
TTITLE7=Šworc - Druhá míza
TTITLE8=Kamelot a Blanka Šrůmová - Setři si slzy z očí
TTITLE9=Berušky - Ty jsi
TTITLE10=Petr Bende - Zaklínám své moře
TTITLE11=Relief - Alone With The Blues
TTITLE12=Marien - Christiana
TTITLE13=Valsilův Rubáš - Lvice
TTITLE14=Strašlivá Podívaná - Čokoláda
TTITLE15=Roháči - Bouře
TTITLE16=Bossy bez basy - zatím hodně pus
TTITLE17=Lážo Plážo - Dobří holubi
TTITLE18=D.N.A. - Lachtani
TTITLE19=Vojta Zícha Druhá míza - Co zbejvá
TTITLE20=Šantré - Čokoláda
TTITLE21=Ducha Chance - Chci s tebou být
TTITLE22=Sluníčko - Nightingale sang in Berkeley Square
EXTD=
EXTT0=
EXTT1=
EXTT2=
EXTT3=
EXTT4=
EXTT5=
EXTT6=
EXTT7=
EXTT8=
EXTT9=
EXTT10=
EXTT11=
EXTT12=
EXTT13=
EXTT14=
EXTT15=
EXTT16=
EXTT17=
EXTT18=
EXTT19=
EXTT20=
EXTT21=
EXTT22=
PLAYORDER=
